<svg width="100" height="101" viewBox="0 0 100 101" fill="none" xmlns="http://www.w3.org/2000/svg">
<rect y="0.5" width="100" height="100" rx="50" fill="white"/>
<path fill-rule="evenodd" clip-rule="evenodd" d="M38 39V36C38 31.0294 42.0294 27 47 27H53C57.9706 27 62 31.0294 62 36V39H68C71.3137 39 74 41.6863 74 45V55.7123C66.5289 58.4842 58.4447 59.9998 50.0001 59.9998C41.5554 59.9998 33.4711 58.4842 26 55.7122V45C26 41.6863 28.6863 39 32 39H38ZM44 36C44 34.3431 45.3431 33 47 33H53C54.6569 33 56 34.3431 56 36V39H44V36ZM47 51C47 49.3431 48.3431 48 50 48H50.03C51.6869 48 53.03 49.3431 53.03 51C53.03 52.6569 51.6869 54 50.03 54H50C48.3431 54 47 52.6569 47 51Z" fill="#405DC7"/>
<path d="M26 62.0768V69C26 72.3137 28.6863 75 32 75H68C71.3137 75 74 72.3137 74 69V62.0768C66.4617 64.6213 58.3892 65.9998 50.0001 65.9998C41.6109 65.9998 33.5384 64.6213 26 62.0768Z" fill="#405DC7"/>
</svg>
