<svg width="16" height="18" viewBox="0 0 16 18" fill="none" xmlns="http://www.w3.org/2000/svg">
<path d="M14.1668 2.33332H13.3335V0.666656H11.6668V2.33332H5.00016V0.666656H3.3335V2.33332H2.50016C1.57516 2.33332 0.841829 3.08332 0.841829 3.99999L0.833496 15.6667C0.833496 16.5833 1.57516 17.3333 2.50016 17.3333H14.1668C15.0835 17.3333 15.8335 16.5833 15.8335 15.6667V3.99999C15.8335 3.08332 15.0835 2.33332 14.1668 2.33332ZM14.1668 15.6667H2.50016V7.33332H14.1668V15.6667ZM14.1668 5.66666H2.50016V3.99999H14.1668V5.66666ZM5.8335 10.6667H4.16683V8.99999H5.8335V10.6667ZM9.16683 10.6667H7.50016V8.99999H9.16683V10.6667ZM12.5002 10.6667H10.8335V8.99999H12.5002V10.6667ZM5.8335 14H4.16683V12.3333H5.8335V14ZM9.16683 14H7.50016V12.3333H9.16683V14ZM12.5002 14H10.8335V12.3333H12.5002V14Z" fill="#0A0A0A"/>
</svg>
