<svg width="100" height="101" viewBox="0 0 100 101" fill="none" xmlns="http://www.w3.org/2000/svg">
<rect y="0.5" width="100" height="100" rx="50" fill="white"/>
<path d="M45.3001 43.2535C45.7645 42.9439 46.3382 42.6672 47 42.453L47 47.547C46.3382 47.3328 45.7645 47.0561 45.3001 46.7465C44.2078 46.0183 44 45.3417 44 45C44 44.6583 44.2078 43.9817 45.3001 43.2535Z" fill="#405DC7"/>
<path d="M53.0001 59.547L53 54.453C53.6619 54.6672 54.2355 54.9439 54.6999 55.2535C55.7923 55.9817 56.0001 56.6583 56.0001 57C56.0001 57.3417 55.7923 58.0183 54.6999 58.7465C54.2355 59.0561 53.6619 59.3328 53.0001 59.547Z" fill="#405DC7"/>
<path fill-rule="evenodd" clip-rule="evenodd" d="M50 75C63.2548 75 74 64.2548 74 51C74 37.7452 63.2548 27 50 27C36.7452 27 26 37.7452 26 51C26 64.2548 36.7452 75 50 75ZM53 36C53 34.3431 51.6569 33 50 33C48.3431 33 47 34.3431 47 36V36.276C45.1352 36.6262 43.4104 37.3022 41.9719 38.2612C39.8069 39.7046 38 42.028 38 45C38 47.972 39.8069 50.2954 41.9719 51.7388C43.4104 52.6978 45.1352 53.3738 47 53.724L47.0001 59.5477C45.827 59.1669 44.9575 58.5957 44.47 58.0339C43.3841 56.7824 41.4894 56.6482 40.238 57.7341C38.9865 58.82 38.8523 60.7147 39.9382 61.9661C41.6257 63.9109 44.1787 65.1925 47 65.7229L47 65.9999C47 67.6568 48.3431 69 49.9999 69C51.6568 69 53 67.6569 53 66.0001L53 65.724C54.8648 65.3738 56.5896 64.6978 58.0281 63.7388C60.1932 62.2954 62.0001 59.972 62.0001 57C62.0001 54.028 60.1931 51.7045 58.0281 50.2612C56.5896 49.3022 54.8648 48.6262 53 48.276L53 42.4523C54.173 42.8331 55.0425 43.4043 55.5301 43.9661C56.6159 45.2176 58.5107 45.3518 59.7621 44.2659C61.0135 43.18 61.1477 41.2853 60.0619 40.0339C58.3744 38.0891 55.8214 36.8075 53 36.2771V36Z" fill="#405DC7"/>
</svg>
