<svg width="16" height="4" viewBox="0 0 16 4" fill="none" xmlns="http://www.w3.org/2000/svg">
<path d="M4 2.00012C4 3.10469 3.10457 4.00012 2 4.00012C0.895431 4.00012 0 3.10469 0 2.00012C0 0.895553 0.895431 0.00012207 2 0.00012207C3.10457 0.00012207 4 0.895553 4 2.00012Z" fill="#0A0A0A"/>
<path d="M10 2.00012C10 3.10469 9.10457 4.00012 8 4.00012C6.89543 4.00012 6 3.10469 6 2.00012C6 0.895553 6.89543 0.00012207 8 0.00012207C9.10457 0.00012207 10 0.895553 10 2.00012Z" fill="#0A0A0A"/>
<path d="M14 4.00012C15.1046 4.00012 16 3.10469 16 2.00012C16 0.895553 15.1046 0.00012207 14 0.00012207C12.8954 0.00012207 12 0.895553 12 2.00012C12 3.10469 12.8954 4.00012 14 4.00012Z" fill="#0A0A0A"/>
</svg>
