<svg width="24" height="26" viewBox="0 0 24 26" fill="none" xmlns="http://www.w3.org/2000/svg">
<path d="M19.5425 21.8758C15.3769 26.0414 8.62311 26.0414 4.45752 21.8758C2.37473 19.793 1.33333 17.0632 1.33333 14.3333C1.33332 11.6035 2.37472 8.87364 4.45752 6.79084C4.45752 6.79084 5.33339 8.99994 8.00005 10.3333C8.00005 7.66661 8.66672 3.66661 11.9812 1C14.6667 3.66667 17.4549 4.70326 19.5425 6.79084C21.6253 8.87365 22.6667 11.6035 22.6667 14.3333C22.6667 17.0632 21.6253 19.793 19.5425 21.8758Z" stroke="#404040" stroke-width="2" stroke-linecap="round" stroke-linejoin="round"/>
<path d="M9.17157 18.495C10.7337 20.0571 13.2663 20.0571 14.8284 18.495C15.6095 17.714 16 16.6903 16 15.6667C16 14.6429 15.6095 13.6192 14.8284 12.8382C14.0523 12.0621 13.0366 11.6716 12.0194 11.6667L10.6666 15.6666L7.99999 15.6667C8.00001 16.6903 8.39053 17.714 9.17157 18.495Z" stroke="#404040" stroke-width="2" stroke-linecap="round" stroke-linejoin="round"/>
</svg>
