<svg width="154" height="76" viewBox="0 0 154 76" fill="none" xmlns="http://www.w3.org/2000/svg">
<g opacity="0.7">
<path d="M31.3069 19.333L35.6362 20.493C37.6415 21.0303 39.0503 21.9855 39.8626 23.3585C40.6749 24.7316 40.8186 26.3975 40.2937 28.3564C39.7657 30.3269 38.8052 31.7094 37.4121 32.5039C36.0221 33.2868 34.3245 33.4096 32.3192 32.8723L27.9899 31.7123L31.3069 19.333ZM32.6155 31.3491C35.664 32.166 37.6091 31.0038 38.4507 27.8626C39.2862 24.7446 38.1797 22.7772 35.1312 21.9603L32.6971 21.3081L30.1814 30.6969L32.6155 31.3491ZM47.8752 23.7725L49.666 24.2523L46.349 36.6316L44.5582 36.1518L47.8752 23.7725ZM61.6996 33.9057C62.3654 34.2954 62.8255 34.8038 63.0798 35.431C63.3342 36.0582 63.3588 36.7543 63.1539 37.5193C62.8681 38.5857 62.2751 39.315 61.3749 39.7074C60.4863 40.1029 59.3813 40.1236 58.0599 39.7695L52.7048 38.3346L56.0218 25.9553L61.203 27.3436C62.4781 27.6853 63.393 28.2348 63.9479 28.9922C64.5143 29.7528 64.6609 30.643 64.3876 31.663C64.2106 32.3237 63.883 32.8509 63.4048 33.2446C62.9413 33.6297 62.3729 33.8501 61.6996 33.9057ZM56.3557 31.803L59.4853 32.6416C61.2124 33.1043 62.2545 32.6692 62.6117 31.3363C62.9564 30.0496 62.2653 29.175 60.5382 28.7122L57.4086 27.8736L56.3557 31.803ZM58.2727 38.2798C59.1768 38.5221 59.881 38.5369 60.3852 38.3241C60.8926 38.0998 61.2394 37.6399 61.4258 36.9444C61.6152 36.2374 61.5405 35.6583 61.2017 35.2072C60.8776 34.7477 60.2693 34.3984 59.3768 34.1592L55.969 33.2461L54.8649 37.3667L58.2727 38.2798ZM76.9565 41.5531L70.6973 39.876L68.556 42.582L66.7304 42.0928L75.559 31.1903L77.0716 31.5956L79.2836 45.4564L77.458 44.9672L76.9565 41.5531ZM76.73 39.9643L75.7882 33.3948L71.6879 38.6133L76.73 39.9643ZM89.1204 42.7626L87.788 47.7351L85.9797 47.2506L87.3215 42.2433L84.3763 33.5529L86.428 34.1026L88.6529 40.9602L93.9912 36.1292L96.0428 36.6789L89.1204 42.7626ZM104.745 48.9989L98.4854 47.3218L96.3441 50.0278L94.5185 49.5386L103.347 38.6361L104.86 39.0414L107.072 52.9022L105.246 52.413L104.745 48.9989ZM104.518 47.4101L103.576 40.8406L99.476 46.0591L104.518 47.4101ZM122.08 56.9237L120.185 56.4159L119.742 51.8806C119.697 51.3967 119.54 51.0316 119.271 50.7855C119.005 50.5278 118.599 50.3259 118.054 50.1799L115.342 49.4532L113.926 54.7387L112.152 54.2635L115.469 41.8842L120.564 43.2492C121.92 43.6126 122.876 44.192 123.434 44.9873C124.002 45.7857 124.136 46.747 123.835 47.8714C123.617 48.6828 123.218 49.315 122.637 49.768C122.056 50.2211 121.34 50.4579 120.49 50.4785C121.174 50.7986 121.559 51.4484 121.645 52.4278L122.08 56.9237ZM118.841 48.844C119.745 49.0863 120.464 49.0925 120.997 48.8628C121.534 48.6215 121.897 48.1473 122.087 47.4403C122.276 46.7332 122.196 46.1526 121.845 45.6984C121.51 45.2358 120.884 44.8818 119.968 44.6364L116.856 43.8025L115.729 48.0101L118.841 48.844Z" fill="#43936C"/>
<rect x="10.4739" y="0.658401" width="146.925" height="37.9248" rx="7.46242" transform="rotate(15 10.4739 0.658401)" stroke="#43936C" stroke-width="1.07516"/>
</g>
</svg>
