<svg width="54" height="15" viewBox="0 0 54 15" fill="none" xmlns="http://www.w3.org/2000/svg">
<path d="M20.124 2.93909H17.1457C17.0471 2.93902 16.9518 2.97418 16.8768 3.03821C16.8018 3.10225 16.7522 3.19095 16.7368 3.28835L15.5323 10.9254C15.5267 10.9609 15.5289 10.9971 15.5387 11.0316C15.5485 11.0661 15.5657 11.0981 15.5891 11.1253C15.6124 11.1525 15.6414 11.1744 15.674 11.1893C15.7066 11.2043 15.742 11.212 15.7779 11.212H17.1997C17.2984 11.212 17.3938 11.1768 17.4688 11.1127C17.5438 11.0486 17.5934 10.9598 17.6087 10.8623L17.9335 8.80244C17.9488 8.70504 17.9983 8.61629 18.0732 8.55218C18.1481 8.48807 18.2434 8.45281 18.342 8.45275H19.2848C21.2467 8.45275 22.379 7.50339 22.6746 5.6221C22.8079 4.79904 22.6803 4.15234 22.2949 3.69944C21.8716 3.20212 21.1208 2.93909 20.124 2.93909ZM20.4676 5.72836C20.3047 6.79704 19.4882 6.79704 18.6987 6.79704H18.2493L18.5645 4.80122C18.5738 4.74283 18.6035 4.68965 18.6485 4.65125C18.6934 4.61285 18.7506 4.59175 18.8097 4.59175H19.0157C19.5535 4.59175 20.0609 4.59175 20.323 4.89833C20.4794 5.08123 20.5273 5.35297 20.4676 5.72836ZM29.0266 5.69396H27.6004C27.5413 5.69396 27.4841 5.71506 27.4392 5.75346C27.3942 5.79186 27.3645 5.84504 27.3552 5.90343L27.2921 6.30233L27.1924 6.15775C26.8836 5.70964 26.1951 5.55983 25.5079 5.55983C23.9319 5.55983 22.5858 6.75349 22.3236 8.42793C22.1873 9.26318 22.3811 10.0619 22.8549 10.6188C23.2895 11.131 23.9114 11.3444 24.6513 11.3444C25.9212 11.3444 26.6254 10.5278 26.6254 10.5278L26.5618 10.9241C26.5561 10.9595 26.5582 10.9958 26.5679 11.0303C26.5776 11.0649 26.5946 11.0969 26.6179 11.1242C26.6412 11.1516 26.6701 11.1735 26.7026 11.1886C26.7352 11.2037 26.7706 11.2115 26.8065 11.2115H28.0912C28.1899 11.2116 28.2853 11.1764 28.3603 11.1122C28.4352 11.0481 28.4848 10.9593 28.5001 10.8618L29.2709 5.98051C29.2766 5.94515 29.2745 5.90899 29.2649 5.87452C29.2552 5.84004 29.2381 5.80808 29.2149 5.78083C29.1917 5.75359 29.1628 5.73171 29.1303 5.71671C29.0978 5.70171 29.0624 5.69395 29.0266 5.69396ZM27.0386 8.46973C26.901 9.28452 26.2543 9.83149 25.4295 9.83149C25.0154 9.83149 24.6844 9.69867 24.4719 9.44696C24.2611 9.19699 24.181 8.8412 24.248 8.44491C24.3765 7.63709 25.0341 7.07226 25.8463 7.07226C26.2513 7.07226 26.5805 7.20683 26.7974 7.46072C27.0147 7.71722 27.1009 8.07518 27.0386 8.46973ZM36.6223 5.69396H35.1891C35.1216 5.69406 35.055 5.71066 34.9953 5.74231C34.9356 5.77395 34.8845 5.81969 34.8464 5.87555L32.8698 8.7872L32.0319 5.98922C32.0062 5.90388 31.9537 5.82909 31.8821 5.77591C31.8106 5.72274 31.7239 5.694 31.6347 5.69396H30.2264C30.1868 5.69385 30.1479 5.70319 30.1127 5.7212C30.0775 5.7392 30.0471 5.76535 30.024 5.79747C30.001 5.8296 29.9859 5.86676 29.9802 5.90586C29.9744 5.94497 29.978 5.9849 29.9908 6.02231L31.5694 10.655L30.0853 12.7501C30.0589 12.7872 30.0433 12.8309 30.0401 12.8764C30.0369 12.9218 30.0462 12.9673 30.0671 13.0078C30.088 13.0482 30.1197 13.0822 30.1586 13.1059C30.1975 13.1295 30.2422 13.1421 30.2878 13.142H31.7192C31.786 13.1421 31.8519 13.126 31.9111 13.0951C31.9704 13.0641 32.0212 13.0193 32.0593 12.9644L36.8261 6.08372C36.852 6.04649 36.8671 6.0029 36.8699 5.95768C36.8728 5.91245 36.8632 5.86732 36.8422 5.82716C36.8212 5.78701 36.7896 5.75337 36.7508 5.72988C36.7121 5.7064 36.6676 5.69398 36.6223 5.69396Z" fill="#253B80"/>
<path d="M41.3677 2.93903H38.389C38.2905 2.93908 38.1952 2.97428 38.1204 3.0383C38.0455 3.10233 37.9959 3.19097 37.9805 3.28829L36.776 10.9254C36.7704 10.9607 36.7725 10.9969 36.7823 11.0314C36.792 11.0659 36.8091 11.0978 36.8323 11.1251C36.8556 11.1523 36.8845 11.1742 36.917 11.1892C36.9495 11.2042 36.9849 11.2119 37.0207 11.2119H38.5493C38.6182 11.2118 38.6849 11.1871 38.7373 11.1423C38.7896 11.0974 38.8243 11.0353 38.835 10.9672L39.1768 8.80239C39.1921 8.70499 39.2416 8.61624 39.3165 8.55213C39.3914 8.48801 39.4867 8.45275 39.5853 8.45269H40.5277C42.49 8.45269 43.6218 7.50334 43.9179 5.62205C44.0516 4.79899 43.9232 4.15229 43.5378 3.69939C43.1149 3.20207 42.3646 2.93903 41.3677 2.93903ZM41.7113 5.72831C41.5489 6.79699 40.7324 6.79699 39.9424 6.79699H39.4934L39.8091 4.80116C39.8182 4.74277 39.8479 4.68955 39.8927 4.65113C39.9376 4.6127 39.9948 4.59162 40.0539 4.5917H40.2599C40.7973 4.5917 41.305 4.5917 41.5672 4.89828C41.7235 5.08118 41.771 5.35292 41.7113 5.72831ZM50.2699 5.6939H48.8446C48.7855 5.69374 48.7282 5.71479 48.6833 5.75323C48.6384 5.79167 48.6088 5.84494 48.5998 5.90337L48.5367 6.30228L48.4365 6.1577C48.1278 5.70958 47.4397 5.55978 46.7525 5.55978C45.1765 5.55978 43.8308 6.75344 43.5687 8.42787C43.4328 9.26313 43.6257 10.0618 44.0995 10.6188C44.535 11.1309 45.156 11.3443 45.8959 11.3443C47.1658 11.3443 47.87 10.5278 47.87 10.5278L47.8064 10.9241C47.8007 10.9596 47.8028 10.9959 47.8125 11.0305C47.8223 11.0651 47.8394 11.0972 47.8628 11.1245C47.8861 11.1519 47.9151 11.1738 47.9478 11.1888C47.9805 11.2038 48.016 11.2116 48.052 11.2115H49.3362C49.4348 11.2114 49.5301 11.1762 49.605 11.1121C49.6799 11.0479 49.7295 10.9592 49.7447 10.8618L50.516 5.98045C50.5214 5.94499 50.5191 5.90876 50.5093 5.87426C50.4994 5.83976 50.4822 5.8078 50.4588 5.78057C50.4355 5.75335 50.4065 5.73151 50.3739 5.71655C50.3413 5.70159 50.3058 5.69386 50.2699 5.6939ZM48.2819 8.46968C48.1452 9.28447 47.4976 9.83144 46.6728 9.83144C46.2595 9.83144 45.9277 9.69861 45.7152 9.44691C45.5044 9.19694 45.4251 8.84115 45.4913 8.44486C45.6207 7.63703 46.2774 7.07221 47.0896 7.07221C47.4946 7.07221 47.8238 7.20678 48.0407 7.46066C48.2588 7.71716 48.3451 8.07513 48.2819 8.46968ZM51.9513 3.1485L50.7289 10.9254C50.7233 10.9607 50.7254 10.9969 50.7352 11.0314C50.7449 11.0659 50.762 11.0978 50.7852 11.1251C50.8085 11.1523 50.8374 11.1742 50.8699 11.1892C50.9024 11.2042 50.9378 11.2119 50.9736 11.2119H52.2026C52.4068 11.2119 52.5801 11.0639 52.6115 10.8622L53.8169 3.22558C53.8225 3.19018 53.8204 3.15399 53.8107 3.1195C53.8009 3.085 53.7839 3.05302 53.7606 3.02575C53.7374 2.99848 53.7085 2.97657 53.6759 2.96153C53.6434 2.94648 53.608 2.93866 53.5722 2.9386H52.1961C52.137 2.93881 52.0799 2.96005 52.035 2.99851C51.9902 3.03697 51.9605 3.09014 51.9513 3.1485Z" fill="#179BD7"/>
<path d="M3.16409 12.6961L3.39185 11.2494L2.88451 11.2376H0.461914L2.14549 0.562634C2.15051 0.530017 2.16707 0.500288 2.19217 0.478864C2.21727 0.457441 2.24924 0.445751 2.28224 0.445925H6.36708C7.72317 0.445925 8.65903 0.728118 9.14764 1.2851C9.3767 1.54639 9.52259 1.81944 9.59314 2.11992C9.66717 2.43521 9.66848 2.81191 9.59619 3.27134L9.59096 3.30488V3.59926L9.82003 3.72904C9.9949 3.81763 10.1521 3.93748 10.2838 4.08265C10.4798 4.30605 10.6065 4.58999 10.6601 4.92662C10.7154 5.27283 10.6971 5.6848 10.6065 6.1512C10.502 6.68771 10.333 7.15499 10.1048 7.53734C9.90349 7.87987 9.63279 8.17654 9.31007 8.40831C9.00698 8.62344 8.64683 8.78675 8.23966 8.89126C7.84511 8.99404 7.39525 9.04586 6.90185 9.04586H6.58395C6.35662 9.04586 6.13583 9.12773 5.96251 9.27449C5.78943 9.42281 5.67462 9.62775 5.63851 9.85281L5.61456 9.98302L5.21217 12.5328L5.19388 12.6264C5.18909 12.656 5.18082 12.6708 5.16862 12.6808C5.15681 12.6905 5.14208 12.6959 5.12682 12.6961H3.16409Z" fill="#253B80"/>
<path d="M10.0369 3.33881C10.0247 3.41676 10.0108 3.49645 9.99512 3.57832C9.45643 6.34408 7.61346 7.29953 5.25967 7.29953H4.06122C3.77336 7.29953 3.5308 7.50856 3.48594 7.7925L2.87235 11.684L2.69859 12.7871C2.69167 12.8308 2.69431 12.8756 2.70634 12.9182C2.71836 12.9608 2.73948 13.0003 2.76825 13.034C2.79701 13.0677 2.83274 13.0948 2.87296 13.1133C2.91318 13.1319 2.95695 13.1415 3.00125 13.1415H5.12685C5.37856 13.1415 5.59238 12.9586 5.63201 12.7104L5.65291 12.6024L6.05312 10.0627L6.07882 9.92332C6.11801 9.67423 6.33227 9.49132 6.58398 9.49132H6.90188C8.96128 9.49132 10.5734 8.65519 11.0446 6.23565C11.2415 5.22489 11.1396 4.38092 10.6187 3.78735C10.4537 3.60374 10.2565 3.45174 10.0369 3.33881Z" fill="#179BD7"/>
<path d="M9.47331 3.11404C9.3013 3.06428 9.12633 3.02545 8.94942 2.99777C8.59987 2.94405 8.24659 2.91827 7.89294 2.92069H4.69126C4.56941 2.92059 4.45155 2.96409 4.35899 3.04332C4.26642 3.12255 4.20525 3.23229 4.18653 3.35269L3.50544 7.66659L3.48584 7.79245C3.50706 7.65512 3.57673 7.52992 3.68224 7.4395C3.78776 7.34908 3.92216 7.29941 4.06111 7.29948H5.25957C7.61336 7.29948 9.45632 6.34359 9.99502 3.57827C10.0111 3.4964 10.0246 3.4167 10.0368 3.33875C9.89468 3.26421 9.74653 3.20172 9.59394 3.15193C9.55393 3.13866 9.51372 3.12603 9.47331 3.11404Z" fill="#222D65"/>
<path d="M4.1867 3.35279C4.20526 3.23236 4.26639 3.12257 4.35901 3.04338C4.45162 2.96419 4.56957 2.92085 4.69143 2.92123H7.89311C8.27241 2.92123 8.62646 2.94605 8.94959 2.99831C9.16825 3.03267 9.38389 3.08407 9.59454 3.15203C9.75349 3.20473 9.90112 3.267 10.0374 3.33886C10.1977 2.31677 10.0361 1.62087 9.48349 0.990726C8.87425 0.297 7.77465 0 6.36761 0H2.28277C1.99535 0 1.75017 0.209032 1.70575 0.493403L0.00431552 11.2782C-0.00360948 11.3282 -0.00059429 11.3794 0.0131537 11.4282C0.0269017 11.477 0.0510562 11.5223 0.0839556 11.5608C0.116855 11.5994 0.157719 11.6304 0.203736 11.6516C0.249753 11.6729 0.299831 11.684 0.350525 11.684H2.87241L3.50561 7.66669L4.1867 3.35279Z" fill="#253B80"/>
</svg>
