<svg width="42" height="48" viewBox="0 0 42 48" fill="none" xmlns="http://www.w3.org/2000/svg">
<path d="M8.20059 25.6H6.60059V22.4H8.20059C8.62493 22.4 9.0319 22.5686 9.33196 22.8687C9.63201 23.1687 9.80059 23.5757 9.80059 24C9.80059 24.4244 9.63201 24.8313 9.33196 25.1314C9.0319 25.4315 8.62493 25.6 8.20059 25.6Z" fill="#CB3A31"/>
<path d="M19.4004 32V22.4H21.0004C21.4247 22.4 21.8317 22.5686 22.1318 22.8687C22.4318 23.1687 22.6004 23.5757 22.6004 24V30.4C22.6004 30.8244 22.4318 31.2313 22.1318 31.5314C21.8317 31.8315 21.4247 32 21.0004 32H19.4004Z" fill="#CB3A31"/>
<path fill-rule="evenodd" clip-rule="evenodd" d="M0.200684 4.8C0.200684 3.52696 0.706397 2.30606 1.60657 1.40589C2.50675 0.505713 3.72764 0 5.00068 0L31.2631 0L41.8007 10.5376V43.2C41.8007 44.473 41.295 45.6939 40.3948 46.5941C39.4946 47.4943 38.2737 48 37.0007 48H5.00068C3.72764 48 2.50675 47.4943 1.60657 46.5941C0.706397 45.6939 0.200684 44.473 0.200684 43.2V4.8ZM8.20068 19.2H3.40068V35.2H6.60068V28.8H8.20068C9.47372 28.8 10.6946 28.2943 11.5948 27.3941C12.495 26.4939 13.0007 25.273 13.0007 24C13.0007 22.727 12.495 21.5061 11.5948 20.6059C10.6946 19.7057 9.47372 19.2 8.20068 19.2ZM21.0007 19.2H16.2007V35.2H21.0007C22.2737 35.2 23.4946 34.6943 24.3948 33.7941C25.295 32.8939 25.8007 31.673 25.8007 30.4V24C25.8007 22.727 25.295 21.5061 24.3948 20.6059C23.4946 19.7057 22.2737 19.2 21.0007 19.2ZM29.0007 35.2V19.2H38.6007V22.4H32.2007V25.6H35.4007V28.8H32.2007V35.2H29.0007Z" fill="#CB3A31"/>
</svg>
