<svg width="52" height="49" viewBox="0 0 52 49" fill="none" xmlns="http://www.w3.org/2000/svg">
<rect y="1" width="48" height="48" rx="24" fill="#FFFFFF"/>
<path d="M29.3334 18.3333C29.3334 21.2789 26.9455 23.6667 24 23.6667C21.0545 23.6667 18.6667 21.2789 18.6667 18.3333C18.6667 15.3878 21.0545 13 24 13C26.9455 13 29.3334 15.3878 29.3334 18.3333Z" stroke="#405DC7" stroke-width="2" stroke-linecap="round" stroke-linejoin="round"/>
<path d="M24 27.6667C18.8454 27.6667 14.6667 31.8453 14.6667 37H33.3334C33.3334 31.8453 29.1547 27.6667 24 27.6667Z" stroke="#405DC7" stroke-width="2" stroke-linecap="round" stroke-linejoin="round"/>
<circle cx="42" cy="10" r="8" fill="white"/>
<path fill-rule="evenodd" clip-rule="evenodd" d="M42 18C46.4183 18 50 14.4183 50 10C50 5.58172 46.4183 2 42 2C37.5817 2 34 5.58172 34 10C34 14.4183 37.5817 18 42 18ZM45.7071 8.70711C46.0976 8.31658 46.0976 7.68342 45.7071 7.29289C45.3166 6.90237 44.6834 6.90237 44.2929 7.29289L41 10.5858L39.7071 9.29289C39.3166 8.90237 38.6834 8.90237 38.2929 9.29289C37.9024 9.68342 37.9024 10.3166 38.2929 10.7071L40.2929 12.7071C40.6834 13.0976 41.3166 13.0976 41.7071 12.7071L45.7071 8.70711Z" fill="#43936C"/>
</svg>
