<svg width="100" height="101" viewBox="0 0 100 101" fill="none" xmlns="http://www.w3.org/2000/svg">
<rect y="0.5" width="100" height="100" rx="50" fill="white"/>
<path fill-rule="evenodd" clip-rule="evenodd" d="M26.4983 35.9967C35.5231 35.8743 43.7458 32.431 50 26.8334C56.2542 32.431 64.4769 35.8743 73.5017 35.9967C73.8294 37.949 74 39.9546 74 42.0001C74 57.6747 63.9823 71.0095 50 75.9515C36.0177 71.0095 26 57.6747 26 42.0001C26 39.9546 26.1706 37.949 26.4983 35.9967ZM61.1213 47.1213C62.2929 45.9497 62.2929 44.0503 61.1213 42.8787C59.9497 41.7071 58.0503 41.7071 56.8787 42.8787L47 52.7574L43.1213 48.8787C41.9497 47.7071 40.0503 47.7071 38.8787 48.8787C37.7071 50.0503 37.7071 51.9497 38.8787 53.1213L44.8787 59.1213C46.0503 60.2929 47.9497 60.2929 49.1213 59.1213L61.1213 47.1213Z" fill="#405DC7"/>
</svg>
