<svg width="195" height="34" viewBox="0 0 195 34" fill="none" xmlns="http://www.w3.org/2000/svg">
<path d="M14.3628 33.5287C11.1494 33.5287 8.73128 32.7335 7.10837 31.143C5.48545 29.5201 4.674 27.102 4.674 23.8886V13.8103H0V8.30862H4.674V2.27137L12.0258 0.469934V8.30862H18.3552V13.8103H12.0258V23.4991C12.0258 25.0571 12.3504 26.1282 12.9995 26.7125C13.6487 27.2967 14.4764 27.5888 15.4826 27.5888C16.0993 27.5888 16.6024 27.5564 16.9919 27.4915C17.4139 27.3941 17.8521 27.2643 18.3065 27.102V32.7984C17.6898 33.0581 17.0406 33.2366 16.359 33.334C15.6774 33.4638 15.012 33.5287 14.3628 33.5287Z" fill="#FFF"/>
<path d="M22.1277 32.9932V8.30862H29.4795V32.9932H22.1277Z" fill="#FFF"/>
<path d="M35.4882 32.9932V14.7354C35.4882 13.6967 35.4557 12.6418 35.3908 11.5707C35.3259 10.4671 35.2285 9.37974 35.0987 8.30862H42.1584L42.6939 12.8852H42.1097C42.8238 11.3272 43.8787 10.0938 45.2744 9.18499C46.6701 8.27616 48.3255 7.82174 50.2405 7.82174C52.1231 7.82174 53.6973 8.27616 54.9632 9.18499C56.2615 10.0614 57.1866 11.4408 57.7384 13.3234H56.9594C57.6735 11.6356 58.8095 10.3048 60.3675 9.33105C61.9255 8.32485 63.6945 7.82174 65.6744 7.82174C68.4658 7.82174 70.5432 8.64943 71.9064 10.3048C73.2697 11.9602 73.9513 14.5568 73.9513 18.0948V32.9932H66.5995V18.3382C66.5995 16.6179 66.3236 15.3845 65.7718 14.638C65.22 13.8914 64.3274 13.5182 63.094 13.5182C61.6334 13.5182 60.4811 14.0375 59.6372 15.0762C58.7933 16.1148 58.3713 17.543 58.3713 19.3607V32.9932H51.0195V18.3382C51.0195 16.6179 50.7436 15.3845 50.1918 14.638C49.64 13.8914 48.7474 13.5182 47.514 13.5182C46.0534 13.5182 44.9011 14.0375 44.0572 15.0762C43.2457 16.1148 42.84 17.543 42.84 19.3607V32.9932H35.4882Z" fill="#FFF"/>
<path d="M86.7683 32.9932L76.1057 8.30862H83.847L90.9067 26.2256H89.3L96.6031 8.30862H103.858L93.0976 32.9932H86.7683Z" fill="#FFF"/>
<path d="M117.542 33.5287C114.913 33.5287 112.624 33.0094 110.677 31.9707C108.762 30.8996 107.269 29.4065 106.198 27.4915C105.159 25.5764 104.64 23.2881 104.64 20.6265C104.64 17.9974 105.159 15.7253 106.198 13.8103C107.269 11.8953 108.762 10.4184 110.677 9.37974C112.624 8.34107 114.913 7.82174 117.542 7.82174C120.171 7.82174 122.459 8.34107 124.407 9.37974C126.354 10.4184 127.847 11.8953 128.886 13.8103C129.957 15.7253 130.493 17.9974 130.493 20.6265C130.493 23.2881 129.957 25.5764 128.886 27.4915C127.847 29.4065 126.354 30.8996 124.407 31.9707C122.459 33.0094 120.171 33.5287 117.542 33.5287ZM117.542 27.9783C119.23 27.9783 120.56 27.3779 121.534 26.1769C122.54 24.976 123.043 23.1258 123.043 20.6265C123.043 18.1273 122.54 16.2934 121.534 15.1249C120.56 13.9564 119.23 13.3721 117.542 13.3721C115.854 13.3721 114.507 13.9564 113.501 15.1249C112.527 16.2934 112.04 18.1273 112.04 20.6265C112.04 23.1258 112.527 24.976 113.501 26.1769C114.507 27.3779 115.854 27.9783 117.542 27.9783Z" fill="#FFF"/>
<path d="M135.24 32.9932V8.30862H142.592V32.9932H135.24Z" fill="#FFF"/>
<path d="M160.481 33.5287C157.852 33.5287 155.547 33.0094 153.567 31.9707C151.587 30.9321 150.062 29.439 148.99 27.4915C147.919 25.544 147.384 23.2394 147.384 20.5779C147.384 17.8838 147.919 15.5955 148.99 13.7129C150.094 11.7979 151.62 10.3373 153.567 9.33105C155.547 8.32485 157.852 7.82174 160.481 7.82174C162.136 7.82174 163.743 8.06518 165.301 8.55205C166.891 9.03893 168.19 9.72055 169.196 10.5969L167.053 15.6604C166.242 14.9139 165.301 14.3621 164.23 14.005C163.191 13.6155 162.185 13.4208 161.211 13.4208C159.231 13.4208 157.689 14.0375 156.586 15.2709C155.482 16.5043 154.93 18.2895 154.93 20.6265C154.93 22.9635 155.482 24.7487 156.586 25.9822C157.689 27.2156 159.231 27.8323 161.211 27.8323C162.152 27.8323 163.142 27.6538 164.181 27.2967C165.252 26.9397 166.21 26.4041 167.053 25.69L169.196 30.7048C168.157 31.5812 166.843 32.2791 165.252 32.7984C163.694 33.2853 162.104 33.5287 160.481 33.5287Z" fill="#FFF"/>
<path d="M185.312 33.5287C182.456 33.5287 180.005 33.0094 177.961 31.9707C175.916 30.9321 174.358 29.4552 173.287 27.5402C172.216 25.5927 171.68 23.3044 171.68 20.6752C171.68 18.111 172.183 15.8714 173.189 13.9564C174.228 12.0413 175.656 10.5482 177.474 9.47711C179.324 8.37353 181.482 7.82174 183.949 7.82174C186.384 7.82174 188.412 8.34107 190.035 9.37974C191.69 10.4184 192.924 11.879 193.735 13.7616C194.579 15.6117 195.001 17.7702 195.001 20.237V21.9411H177.717V18.2895H189.646L188.818 18.9712C188.818 16.9263 188.396 15.3845 187.552 14.3459C186.741 13.2747 185.556 12.7392 183.998 12.7392C182.829 12.7392 181.839 13.0313 181.028 13.6155C180.249 14.1673 179.648 14.995 179.226 16.0986C178.837 17.1697 178.642 18.5005 178.642 20.091V20.87C178.642 23.2719 179.226 25.0571 180.395 26.2256C181.596 27.3941 183.316 27.9783 185.556 27.9783C186.887 27.9783 188.136 27.8161 189.305 27.4915C190.506 27.1344 191.642 26.5826 192.713 25.8361L194.758 30.7048C193.524 31.6137 192.096 32.3115 190.473 32.7984C188.883 33.2853 187.163 33.5287 185.312 33.5287Z" fill="#FFF"/>
</svg>
