<svg width="196" height="34" viewBox="0 0 196 34" fill="none" xmlns="http://www.w3.org/2000/svg">
<path d="M14.3628 33.0588C11.1494 33.0588 8.73128 32.2636 7.10837 30.6731C5.48545 29.0502 4.674 26.632 4.674 23.4187V13.3404H0V7.83868H4.674V1.80144L12.0258 0V7.83868H18.3552V13.3404H12.0258V23.0292C12.0258 24.5872 12.3504 25.6583 12.9995 26.2425C13.6487 26.8268 14.4764 27.1189 15.4826 27.1189C16.0993 27.1189 16.6024 27.0865 16.9919 27.0215C17.4139 26.9242 17.8521 26.7943 18.3065 26.632V32.3285C17.6898 32.5881 17.0406 32.7667 16.359 32.864C15.6774 32.9939 15.012 33.0588 14.3628 33.0588Z" fill="#405DC7"/>
<path d="M22.1277 32.5232V7.83868H29.4795V32.5232H22.1277Z" fill="#405DC7"/>
<path d="M35.4882 32.5232V14.2654C35.4882 13.2268 35.4557 12.1719 35.3908 11.1007C35.3259 9.99716 35.2285 8.9098 35.0987 7.83868H42.1584L42.694 12.4153H42.1097C42.8238 10.8573 43.8787 9.62389 45.2744 8.71506C46.6701 7.80622 48.3255 7.35181 50.2405 7.35181C52.1231 7.35181 53.6973 7.80622 54.9632 8.71506C56.2615 9.59143 57.1866 10.9709 57.7384 12.8535H56.9594C57.6735 11.1657 58.8095 9.83487 60.3675 8.86112C61.9255 7.85491 63.6945 7.35181 65.6744 7.35181C68.4658 7.35181 70.5432 8.17949 71.9064 9.83487C73.2697 11.4902 73.9513 14.0869 73.9513 17.6249V32.5232H66.5995V17.8683C66.5995 16.148 66.3236 14.9146 65.7718 14.168C65.22 13.4215 64.3274 13.0482 63.094 13.0482C61.6334 13.0482 60.4811 13.5676 59.6372 14.6062C58.7933 15.6449 58.3713 17.0731 58.3713 18.8907V32.5232H51.0195V17.8683C51.0195 16.148 50.7436 14.9146 50.1918 14.168C49.64 13.4215 48.7474 13.0482 47.514 13.0482C46.0534 13.0482 44.9011 13.5676 44.0572 14.6062C43.2457 15.6449 42.84 17.0731 42.84 18.8907V32.5232H35.4882Z" fill="#405DC7"/>
<path d="M86.7683 32.5232L76.1057 7.83868H83.847L90.9067 25.7557H89.3L96.6031 7.83868H103.858L93.0976 32.5232H86.7683Z" fill="#405DC7"/>
<path d="M117.542 33.0588C114.913 33.0588 112.624 32.5394 110.677 31.5008C108.762 30.4297 107.269 28.9366 106.198 27.0215C105.159 25.1065 104.64 22.8182 104.64 20.1566C104.64 17.5275 105.159 15.2554 106.198 13.3404C107.269 11.4253 108.762 9.94847 110.677 8.9098C112.624 7.87114 114.913 7.35181 117.542 7.35181C120.171 7.35181 122.459 7.87114 124.407 8.9098C126.354 9.94847 127.847 11.4253 128.886 13.3404C129.957 15.2554 130.493 17.5275 130.493 20.1566C130.493 22.8182 129.957 25.1065 128.886 27.0215C127.847 28.9366 126.354 30.4297 124.407 31.5008C122.459 32.5394 120.171 33.0588 117.542 33.0588ZM117.542 27.5084C119.23 27.5084 120.56 26.9079 121.534 25.707C122.54 24.506 123.043 22.6559 123.043 20.1566C123.043 17.6573 122.54 15.8234 121.534 14.6549C120.56 13.4864 119.23 12.9022 117.542 12.9022C115.854 12.9022 114.507 13.4864 113.501 14.6549C112.527 15.8234 112.04 17.6573 112.04 20.1566C112.04 22.6559 112.527 24.506 113.501 25.707C114.507 26.9079 115.854 27.5084 117.542 27.5084Z" fill="#405DC7"/>
<path d="M135.24 32.5232V7.83868H142.592V32.5232H135.24Z" fill="#405DC7"/>
<path d="M160.481 33.0588C157.852 33.0588 155.547 32.5394 153.567 31.5008C151.587 30.4621 150.062 28.969 148.99 27.0215C147.919 25.074 147.384 22.7695 147.384 20.1079C147.384 17.4139 147.919 15.1256 148.99 13.243C150.094 11.3279 151.62 9.86733 153.567 8.86112C155.547 7.85491 157.852 7.35181 160.481 7.35181C162.136 7.35181 163.743 7.59524 165.301 8.08212C166.891 8.56899 168.19 9.25062 169.196 10.127L167.053 15.1905C166.242 14.4439 165.301 13.8922 164.23 13.5351C163.191 13.1456 162.185 12.9509 161.211 12.9509C159.231 12.9509 157.689 13.5676 156.586 14.801C155.482 16.0344 154.93 17.8196 154.93 20.1566C154.93 22.4936 155.482 24.2788 156.586 25.5122C157.689 26.7456 159.231 27.3623 161.211 27.3623C162.152 27.3623 163.142 27.1838 164.181 26.8268C165.252 26.4697 166.21 25.9342 167.053 25.2201L169.196 30.2349C168.157 31.1113 166.843 31.8091 165.252 32.3285C163.694 32.8153 162.104 33.0588 160.481 33.0588Z" fill="#405DC7"/>
<path d="M185.312 33.0588C182.456 33.0588 180.005 32.5394 177.961 31.5008C175.916 30.4621 174.358 28.9853 173.287 27.0702C172.215 25.1227 171.68 22.8344 171.68 20.2053C171.68 17.6411 172.183 15.4015 173.189 13.4864C174.228 11.5714 175.656 10.0783 177.474 9.00718C179.324 7.9036 181.482 7.35181 183.949 7.35181C186.384 7.35181 188.412 7.87114 190.035 8.9098C191.69 9.94847 192.924 11.4091 193.735 13.2917C194.579 15.1418 195.001 17.3003 195.001 19.7671V21.4712H177.717V17.8196H189.646L188.818 18.5012C188.818 16.4564 188.396 14.9146 187.552 13.8759C186.741 12.8048 185.556 12.2692 183.998 12.2692C182.829 12.2692 181.839 12.5614 181.028 13.1456C180.249 13.6974 179.648 14.5251 179.227 15.6287C178.837 16.6998 178.642 18.0306 178.642 19.621V20.4C178.642 22.802 179.227 24.5872 180.395 25.7557C181.596 26.9242 183.316 27.5084 185.556 27.5084C186.887 27.5084 188.136 27.3461 189.305 27.0215C190.506 26.6645 191.642 26.1127 192.713 25.3662L194.758 30.2349C193.524 31.1437 192.096 31.8416 190.473 32.3285C188.883 32.8153 187.163 33.0588 185.312 33.0588Z" fill="#405DC7"/>
</svg>
