<svg width="330" height="42" viewBox="0 0 330 42" fill="none" xmlns="http://www.w3.org/2000/svg">
<path d="M15.1051 31.7712H27.9324L26.1342 41.5H0L7.49259 0.5H20.7994L15.1051 31.7712Z" fill="#C2C2C2"/>
<path d="M66.1062 0.5L58.6136 41.5H45.3068L52.7994 0.5H66.1062Z" fill="#C2C2C2"/>
<path d="M138.111 0.5L130.618 41.5H117.371L121.088 21.1158L110.838 41.5H99.4492L96.632 20.9421L92.9156 41.5H79.6088L87.1014 0.5H103.405L108.26 25.1695L121.867 0.5H138.111Z" fill="#C2C2C2"/>
<path d="M172.407 0.5L164.915 41.5H151.608L159.101 0.5H172.407Z" fill="#C2C2C2"/>
<path d="M226.73 0.5L224.871 10.6921H213.603L207.968 41.5H194.661L200.296 10.6921H189.147L191.005 0.5H226.73Z" fill="#C2C2C2"/>
<path d="M256.773 10.6921L255.873 15.7881H269.06L267.262 25.459H254.075L252.996 31.25H267.981L266.123 41.5H237.831L245.324 0.5H273.616L271.758 10.6921H256.773Z" fill="#C2C2C2"/>
<path d="M311.298 0.5C315.215 0.5 318.571 1.19491 321.369 2.58474C324.166 3.93597 326.304 5.84699 327.782 8.3178C329.261 10.75 330 13.5683 330 16.7726C330 18.0466 329.88 19.4171 329.64 20.8842C328.921 24.7834 327.363 28.2966 324.965 31.4237C322.607 34.5508 319.59 37.0217 315.914 38.8362C312.277 40.6121 308.241 41.5 303.806 41.5H286.123L293.616 0.5H311.298ZM304.705 30.0339C307.702 30.0339 310.22 29.2425 312.258 27.6596C314.335 26.0767 315.634 23.8183 316.154 20.8842C316.274 20.1121 316.333 19.3978 316.333 18.7415C316.333 16.4637 315.594 14.7265 314.116 13.5297C312.677 12.3329 310.659 11.7345 308.062 11.7345H304.885L301.528 30.0339H304.705Z" fill="#C2C2C2"/>
</svg>
