<svg width="52" height="50" viewBox="0 0 52 50" fill="none" xmlns="http://www.w3.org/2000/svg">
<path d="M13.3031 24.9799C10.8388 24.9799 8.60481 24.4508 6.60114 23.3928C4.6205 22.3117 3.05441 20.8281 1.90287 18.9419C0.774366 17.0328 0.210113 14.8821 0.210113 12.4899C0.210113 10.0978 0.774366 7.9586 1.90287 6.07246C3.05441 4.16331 4.6205 2.6797 6.60114 1.62162C8.60481 0.54054 10.8503 0 13.3376 0C15.4334 0 17.3219 0.368028 19.0032 1.10408C20.7075 1.84014 22.1354 2.89822 23.2869 4.27832L19.6941 7.59057C18.0589 5.70443 16.0322 4.76136 13.614 4.76136C12.117 4.76136 10.7812 5.09488 9.60665 5.76193C8.43208 6.40598 7.51085 7.31455 6.84296 8.48764C6.1981 9.66072 5.87567 10.9948 5.87567 12.4899C5.87567 13.985 6.1981 15.3191 6.84296 16.4922C7.51085 17.6653 8.43208 18.5854 9.60665 19.2524C10.7812 19.8965 12.117 20.2185 13.614 20.2185C16.0322 20.2185 18.0589 19.2639 19.6941 17.3548L23.2869 20.6671C22.1354 22.0702 20.7075 23.1397 19.0032 23.8758C17.2989 24.6118 15.3989 24.9799 13.3031 24.9799Z" fill="#C2C2C2"/>
<path d="M36.544 24.9799C34.0336 24.9799 31.7651 24.4393 29.7384 23.3583C27.7347 22.2772 26.1571 20.7936 25.0056 18.9074C23.8771 16.9983 23.3128 14.8591 23.3128 12.4899C23.3128 10.1208 23.8771 7.9931 25.0056 6.10696C26.1571 4.19781 27.7347 2.7027 29.7384 1.62162C31.7651 0.54054 34.0336 0 36.544 0C39.0543 0 41.3113 0.54054 43.315 1.62162C45.3187 2.7027 46.8963 4.19781 48.0478 6.10696C49.1993 7.9931 49.7751 10.1208 49.7751 12.4899C49.7751 14.8591 49.1993 16.9983 48.0478 18.9074C46.8963 20.7936 45.3187 22.2772 43.315 23.3583C41.3113 24.4393 39.0543 24.9799 36.544 24.9799ZM36.544 20.2185C37.9719 20.2185 39.2616 19.8965 40.4131 19.2524C41.5647 18.5854 42.4629 17.6653 43.1077 16.4922C43.7756 15.3191 44.1096 13.985 44.1096 12.4899C44.1096 10.9948 43.7756 9.66072 43.1077 8.48764C42.4629 7.31455 41.5647 6.40598 40.4131 5.76193C39.2616 5.09488 37.9719 4.76136 36.544 4.76136C35.1161 4.76136 33.8263 5.09488 32.6748 5.76193C31.5233 6.40598 30.6136 7.31455 29.9457 8.48764C29.3008 9.66072 28.9784 10.9948 28.9784 12.4899C28.9784 13.985 29.3008 15.3191 29.9457 16.4922C30.6136 17.6653 31.5233 18.5854 32.6748 19.2524C33.8263 19.8965 35.1161 20.2185 36.544 20.2185Z" fill="#C2C2C2"/>
<path d="M15.5892 49.724L10.9255 42.996H5.77811V49.724H0.181641V25.5722H10.6491C12.791 25.5722 14.6449 25.9287 16.211 26.6417C17.8001 27.3548 19.0208 28.3669 19.8729 29.678C20.7251 30.9891 21.1511 32.5417 21.1511 34.3358C21.1511 36.13 20.7135 37.6826 19.8384 38.9937C18.9862 40.2818 17.7656 41.2708 16.1765 41.9609L21.6002 49.724H15.5892ZM15.4856 34.3358C15.4856 32.9787 15.048 31.9436 14.1728 31.2306C13.2976 30.4945 12.0194 30.1265 10.3382 30.1265H5.77811V38.5451H10.3382C12.0194 38.5451 13.2976 38.1771 14.1728 37.4411C15.048 36.705 15.4856 35.6699 15.4856 34.3358Z" fill="#C2C2C2"/>
<path d="M34.3253 25.5722C36.4672 25.5722 38.3212 25.9287 39.8872 26.6417C41.4764 27.3548 42.697 28.3669 43.5491 29.678C44.4013 30.9891 44.8273 32.5417 44.8273 34.3358C44.8273 36.107 44.4013 37.6596 43.5491 38.9937C42.697 40.3048 41.4764 41.3168 39.8872 42.0299C38.3212 42.72 36.4672 43.065 34.3253 43.065H29.4543V49.724H23.8579V25.5722H34.3253ZM34.0144 38.5106C35.6957 38.5106 36.9739 38.1541 37.849 37.4411C38.7242 36.705 39.1618 35.6699 39.1618 34.3358C39.1618 32.9787 38.7242 31.9436 37.849 31.2306C36.9739 30.4945 35.6957 30.1265 34.0144 30.1265H29.4543V38.5106H34.0144Z" fill="#C2C2C2"/>
<path d="M48.1465 50C47.2022 50 46.4076 49.678 45.7628 49.0339C45.1179 48.3899 44.7955 47.5848 44.7955 46.6188C44.7955 45.6297 45.1179 44.8361 45.7628 44.2381C46.4076 43.617 47.2022 43.3065 48.1465 43.3065C49.0907 43.3065 49.8853 43.617 50.5301 44.2381C51.175 44.8361 51.4974 45.6297 51.4974 46.6188C51.4974 47.5848 51.175 48.3899 50.5301 49.0339C49.8853 49.678 49.0907 50 48.1465 50Z" fill="#C2C2C2"/>
</svg>
