<svg width="273" height="38" viewBox="0 0 273 38" fill="none" xmlns="http://www.w3.org/2000/svg">
<path d="M20.8965 38C17.0603 38 13.6043 37.204 10.5284 35.612C7.45253 33.9854 5.03331 31.7359 3.27073 28.8634C1.54272 25.9563 0.678711 22.6685 0.678711 19C0.678711 15.3315 1.54272 12.061 3.27073 9.18852C5.03331 6.28142 7.45253 4.03188 10.5284 2.43989C13.6043 0.813297 17.0603 0 20.8965 0C24.4216 0 27.5666 0.622951 30.3315 1.86885C33.0963 3.11475 35.3773 4.91439 37.1744 7.26776L29.4502 14.1721C27.2037 11.3342 24.5599 9.9153 21.5186 9.9153C18.9611 9.9153 16.9048 10.7459 15.3496 12.4071C13.7943 14.0337 13.0167 16.2313 13.0167 19C13.0167 21.7687 13.7943 23.9836 15.3496 25.6448C16.9048 27.2714 18.9611 28.0847 21.5186 28.0847C24.5599 28.0847 27.2037 26.6658 29.4502 23.8279L37.1744 30.7322C35.3773 33.0856 33.0963 34.8852 30.3315 36.1311C27.5666 37.377 24.4216 38 20.8965 38Z" fill="#C2C2C2"/>
<path d="M56.3809 38C52.4756 38 48.9677 37.1867 45.8573 35.5601C42.7468 33.9335 40.3103 31.684 38.5478 28.8115C36.7852 25.9044 35.9039 22.6339 35.9039 19C35.9039 15.3661 36.7852 12.1129 38.5478 9.24043C40.3103 6.33333 42.7468 4.06648 45.8573 2.43989C48.9677 0.813297 52.4756 0 56.3809 0C60.2862 0 63.7941 0.813297 66.9045 2.43989C70.0149 4.06648 72.4514 6.33333 74.214 9.24043C75.9766 12.1129 76.8579 15.3661 76.8579 19C76.8579 22.6339 75.9766 25.9044 74.214 28.8115C72.4514 31.684 70.0149 33.9335 66.9045 35.5601C63.7941 37.1867 60.2862 38 56.3809 38ZM56.3809 28.0847C57.9015 28.0847 59.2667 27.7213 60.4763 26.9945C61.7204 26.2332 62.7054 25.1776 63.4312 23.8279C64.1569 22.4435 64.5198 20.8342 64.5198 19C64.5198 17.1658 64.1569 15.5738 63.4312 14.224C62.7054 12.8397 61.7204 11.7842 60.4763 11.0574C59.2667 10.296 57.9015 9.9153 56.3809 9.9153C54.8602 9.9153 53.4778 10.296 52.2336 11.0574C51.024 11.7842 50.0563 12.8397 49.3306 14.224C48.6048 15.5738 48.2419 17.1658 48.2419 19C48.2419 20.8342 48.6048 22.4435 49.3306 23.8279C50.0563 25.1776 51.024 26.2332 52.2336 26.9945C53.4778 27.7213 54.8602 28.0847 56.3809 28.0847Z" fill="#C2C2C2"/>
<path d="M111.107 37.1694L111.003 20.6093L103.123 33.8989H97.7317L89.852 21.1803V37.1694H78.7063V0.8306H88.7633L100.583 20.194L112.092 0.8306H122.149L122.252 37.1694H111.107Z" fill="#C2C2C2"/>
<path d="M143.046 0.8306C146.398 0.8306 149.318 1.38433 151.807 2.4918C154.295 3.59927 156.213 5.19126 157.561 7.26776C158.909 9.34426 159.583 11.7668 159.583 14.5355C159.583 17.3042 158.909 19.7268 157.561 21.8033C156.213 23.8798 154.295 25.4718 151.807 26.5792C149.318 27.6867 146.398 28.2404 143.046 28.2404H137.81V37.1694H125.575V0.8306H143.046ZM142.268 18.7923C143.927 18.7923 145.171 18.429 146 17.7022C146.83 16.9408 147.245 15.8852 147.245 14.5355C147.245 13.1858 146.83 12.1475 146 11.4208C145.171 10.6594 143.927 10.2787 142.268 10.2787H137.81V18.7923H142.268Z" fill="#C2C2C2"/>
<path d="M183.908 30.8361H170.119L167.682 37.1694H155.241L171.104 0.8306H183.131L198.994 37.1694H186.345L183.908 30.8361ZM180.539 22.0109L177.014 12.8743L173.488 22.0109H180.539Z" fill="#C2C2C2"/>
<path d="M234.124 0.8306V37.1694H224.067L210.278 20.6612V37.1694H198.354V0.8306H208.412L222.201 17.3388V0.8306H234.124Z" fill="#C2C2C2"/>
<path d="M258.993 23.9836V37.1694H246.758V23.8279L233.073 0.8306H245.981L253.394 13.3934L260.859 0.8306H272.679L258.993 23.9836Z" fill="#C2C2C2"/>
</svg>
