<svg width="111" height="40" viewBox="0 0 111 40" fill="none" xmlns="http://www.w3.org/2000/svg">
<path d="M24.1185 20.3077C25.0555 20.3077 25.8426 20.6247 26.4797 21.2587C27.1169 21.8928 27.4355 22.676 27.4355 23.6084C27.4355 24.5408 27.1169 25.3427 26.4797 26.014C25.8426 26.648 25.0555 26.965 24.1185 26.965H17.0347V33.958C17.0347 34.8904 16.7162 35.6737 16.079 36.3077C15.4793 36.9417 14.6922 37.2587 13.7177 37.2587C12.7807 37.2587 11.9937 36.9417 11.3565 36.3077C10.7193 35.6737 10.4007 34.8904 10.4007 33.958V26.965H3.31699C2.37999 26.965 1.59291 26.648 0.955745 26.014C0.318582 25.3427 0 24.5408 0 23.6084C0 22.676 0.318582 21.8928 0.955745 21.2587C1.59291 20.6247 2.37999 20.3077 3.31699 20.3077H10.4007V13.2587C10.4007 12.3263 10.7193 11.5431 11.3565 10.9091C11.9937 10.2751 12.7807 9.95804 13.7177 9.95804C14.6547 9.95804 15.4418 10.2751 16.079 10.9091C16.7162 11.5431 17.0347 12.3263 17.0347 13.2587V20.3077H24.1185Z" fill="#C2C2C2"/>
<path d="M31.63 39.7203C30.0934 39.7203 28.9127 39.31 28.0882 38.4895C27.2636 37.669 26.8513 36.4755 26.8513 34.9091V5.03497C26.8513 3.50583 27.3011 2.29371 28.2006 1.3986C29.1376 0.4662 30.3932 0 31.9674 0C33.579 0 34.8533 0.4662 35.7903 1.3986C36.7273 2.29371 37.1958 3.50583 37.1958 5.03497V31.3846H50.1265C53.3873 31.3846 55.0177 32.7832 55.0177 35.5804C55.0177 36.9977 54.6054 38.042 53.7808 38.7133C52.9937 39.3846 51.7756 39.7203 50.1265 39.7203H31.63Z" fill="#C2C2C2"/>
<path d="M58.8556 40C57.2814 40 56.0071 39.5524 55.0326 38.6573C54.0956 37.7249 53.6271 36.4942 53.6271 34.965V8.61538H45.7C44.0509 8.61538 42.8141 8.27972 41.9895 7.60839C41.2024 6.89977 40.8089 5.83683 40.8089 4.41958C40.8089 3.00233 41.2024 1.95804 41.9895 1.28671C42.8141 0.615384 44.0509 0.27972 45.7 0.27972H72.0111C73.6602 0.27972 74.8783 0.615384 75.6654 1.28671C76.49 1.95804 76.9023 3.00233 76.9023 4.41958C76.9023 5.83683 76.49 6.89977 75.6654 7.60839C74.8783 8.27972 73.6602 8.61538 72.0111 8.61538H64.0841V34.965C64.0841 36.4942 63.5968 37.7249 62.6223 38.6573C61.6853 39.5524 60.4297 40 58.8556 40Z" fill="#C2C2C2"/>
<path d="M77.6801 39.7203C76.1434 39.7203 74.9628 39.31 74.1383 38.4895C73.3137 37.669 72.9014 36.4942 72.9014 34.965V5.03497C72.9014 3.50583 73.3137 2.331 74.1383 1.51049C74.9628 0.689977 76.1434 0.27972 77.6801 0.27972H89.0366C93.4218 0.27972 97.1886 1.08158 100.337 2.68531C103.523 4.25175 105.959 6.50816 107.646 9.45455C109.332 12.4009 110.175 15.9068 110.175 19.972C110.175 24.0746 109.332 27.6177 107.646 30.6014C105.996 33.5478 103.579 35.8042 100.393 37.3706C97.2448 38.9371 93.4593 39.7203 89.0366 39.7203H77.6801ZM88.3058 31.4406C92.1662 31.4406 95.0522 30.5082 96.9637 28.6434C98.9127 26.7413 99.8871 23.8508 99.8871 19.972C99.8871 16.0932 98.9127 13.2214 96.9637 11.3566C95.0522 9.49184 92.1662 8.55944 88.3058 8.55944H83.2459V31.4406H88.3058Z" fill="#C2C2C2"/>
</svg>
