<svg width="32" height="32" viewBox="0 0 32 32" fill="none" xmlns="http://www.w3.org/2000/svg">
<path d="M18.9337 3.83325C17.2982 3.83325 15.7296 4.48295 14.5732 5.63943C13.4167 6.7959 12.767 8.36442 12.767 9.99992V13.4333H9.46699C9.30131 13.4333 9.16699 13.5676 9.16699 13.7333V18.2666C9.16699 18.4323 9.30131 18.5666 9.46699 18.5666H12.767V27.8666C12.767 28.0323 12.9013 28.1666 13.067 28.1666H17.6003C17.766 28.1666 17.9003 28.0323 17.9003 27.8666V18.5666H21.2296C21.3672 18.5666 21.4872 18.4729 21.5206 18.3393L22.6539 13.806C22.7013 13.6167 22.5581 13.4333 22.3629 13.4333H17.9003V9.99992C17.9003 9.72586 18.0092 9.46303 18.203 9.26924C18.3968 9.07545 18.6596 8.96658 18.9337 8.96658H22.4003C22.566 8.96658 22.7003 8.83227 22.7003 8.66658V4.13325C22.7003 3.96757 22.566 3.83325 22.4003 3.83325H18.9337Z" fill="white"/>
</svg>
