<svg width="32" height="32" viewBox="0 0 32 32" fill="none" xmlns="http://www.w3.org/2000/svg">
<path d="M16.0002 11.6666C13.607 11.6666 11.6669 13.6067 11.6669 15.9999C11.6669 18.3931 13.607 20.3332 16.0002 20.3332C18.3935 20.3332 20.3336 18.3931 20.3336 15.9999C20.3336 13.6067 18.3935 11.6666 16.0002 11.6666Z" fill="white"/>
<path fill-rule="evenodd" clip-rule="evenodd" d="M9.02629 4.10852C13.6238 3.59469 18.3767 3.59469 22.9742 4.10852C25.5054 4.39142 27.547 6.38579 27.8441 8.92586C28.3938 13.6259 28.3938 18.3739 27.8441 23.0739C27.547 25.614 25.5054 27.6084 22.9742 27.8913C18.3767 28.4051 13.6238 28.4051 9.0263 27.8913C6.4951 27.6084 4.45351 25.614 4.15642 23.0739C3.60671 18.3739 3.60671 13.6259 4.15642 8.92586C4.45351 6.38579 6.4951 4.39142 9.02629 4.10852ZM22.6669 7.9999C21.9305 7.9999 21.3336 8.59685 21.3336 9.33323C21.3336 10.0696 21.9305 10.6666 22.6669 10.6666C23.4033 10.6666 24.0002 10.0696 24.0002 9.33323C24.0002 8.59685 23.4033 7.9999 22.6669 7.9999ZM9.66691 15.9999C9.66691 12.5021 12.5024 9.66657 16.0002 9.66657C19.498 9.66657 22.3336 12.5021 22.3336 15.9999C22.3336 19.4977 19.498 22.3332 16.0002 22.3332C12.5024 22.3332 9.66691 19.4977 9.66691 15.9999Z" fill="white"/>
</svg>
