<svg width="32" height="32" viewBox="0 0 32 32" fill="none" xmlns="http://www.w3.org/2000/svg">
<path d="M6.33333 2.5C4.76853 2.5 3.5 3.76853 3.5 5.33333C3.5 6.89814 4.76853 8.16667 6.33333 8.16667C7.89814 8.16667 9.16667 6.89814 9.16667 5.33333C9.16667 3.76853 7.89814 2.5 6.33333 2.5Z" fill="white"/>
<path d="M3.66667 10.5C3.57462 10.5 3.5 10.5746 3.5 10.6667V28C3.5 28.092 3.57462 28.1667 3.66667 28.1667H9C9.09205 28.1667 9.16667 28.092 9.16667 28V10.6667C9.16667 10.5746 9.09205 10.5 9 10.5H3.66667Z" fill="white"/>
<path d="M12.3333 10.5C12.2413 10.5 12.1667 10.5746 12.1667 10.6667V28C12.1667 28.092 12.2413 28.1667 12.3333 28.1667H17.6667C17.7587 28.1667 17.8333 28.092 17.8333 28V18.6667C17.8333 18.0036 18.0967 17.3677 18.5656 16.8989C19.0344 16.4301 19.6703 16.1667 20.3333 16.1667C20.9964 16.1667 21.6323 16.4301 22.1011 16.8989C22.5699 17.3677 22.8333 18.0036 22.8333 18.6667V28C22.8333 28.092 22.908 28.1667 23 28.1667H28.3333C28.4254 28.1667 28.5 28.092 28.5 28V16.507C28.5 13.2713 25.6859 10.74 22.4665 11.0327C21.4736 11.1229 20.4919 11.3697 19.5753 11.7626L17.8333 12.5091V10.6667C17.8333 10.5746 17.7587 10.5 17.6667 10.5H12.3333Z" fill="white"/>
</svg>
