<svg width="24" height="26" viewBox="0 0 24 26" fill="none" xmlns="http://www.w3.org/2000/svg">
<path d="M15.9999 19.6667H22.6666L20.7933 17.7934C20.2853 17.2854 19.9999 16.5964 19.9999 15.8779V11.6667C19.9999 8.18342 17.7738 5.22012 14.6666 4.12189V3.66667C14.6666 2.19391 13.4727 1 11.9999 1C10.5272 1 9.33325 2.19391 9.33325 3.66667V4.12189C6.22607 5.22012 3.99992 8.18342 3.99992 11.6667V15.8779C3.99992 16.5964 3.71452 17.2854 3.2065 17.7934L1.33325 19.6667H7.99992M15.9999 19.6667V21C15.9999 23.2091 14.2091 25 11.9999 25C9.79078 25 7.99992 23.2091 7.99992 21V19.6667M15.9999 19.6667H7.99992" stroke="#404040" stroke-width="2" stroke-linecap="round" stroke-linejoin="round"/>
</svg>
